<?xml version="1.0" encoding="utf-8"?>
<!-- Generator: Adobe Illustrator 27.5.0, SVG Export Plug-In . SVG Version: 6.00 Build 0)  -->
<svg version="1.1" id="Layer_1" xmlns="http://www.w3.org/2000/svg" xmlns:xlink="http://www.w3.org/1999/xlink" x="0px" y="0px"
	 viewBox="0 0 24 24" style="enable-background:new 0 0 24 24;" xml:space="preserve">
<style type="text/css">
	.st0{opacity:0.75;}
	.st1{fill:#EEEEEE;}
</style>
<g class="st0">
	<path class="st1" d="M14,23h-4c-0.6,0-1-0.4-1-1v-7H7c-0.6,0-1-0.4-1-1v-4c0-0.6,0.4-1,1-1h2V7c0-1.6,0.6-3.1,1.8-4.2
		C11.9,1.6,13.4,1,15,1h3c0.6,0,1,0.4,1,1v4c0,0.6-0.4,1-1,1h-3v2h3c0.3,0,0.6,0.1,0.8,0.4S19,9.9,19,10.2l-1,4
		c-0.1,0.4-0.5,0.8-1,0.8h-2v7C15,22.6,14.6,23,14,23z M11,21h2v-7c0-0.6,0.4-1,1-1h2.2l0.5-2H14c-0.6,0-1-0.4-1-1V7
		c0-0.5,0.2-1,0.6-1.4S14.5,5,15,5h2V3h-2c-1.1,0-2.1,0.4-2.8,1.2C11.4,4.9,11,5.9,11,7v3c0,0.6-0.4,1-1,1H8v2h2c0.6,0,1,0.4,1,1V21
		z"/>
</g>
</svg>
