<?xml version="1.0" encoding="utf-8"?>
<!-- Generator: Adobe Illustrator 27.5.0, SVG Export Plug-In . SVG Version: 6.00 Build 0)  -->
<svg version="1.1" id="Layer_1" xmlns="http://www.w3.org/2000/svg" xmlns:xlink="http://www.w3.org/1999/xlink" x="0px" y="0px"
	 viewBox="0 0 24 24" style="enable-background:new 0 0 24 24;" xml:space="preserve">
<style type="text/css">
	.st0{fill:#EEEEEE;}
</style>
<g>
	<path class="st0" d="M19,23H5c-0.8,0-1.6-0.3-2.1-0.9C2.3,21.6,2,20.8,2,20V9c0-0.3,0.1-0.6,0.4-0.8l9-7c0.4-0.3,0.9-0.3,1.2,0l9,7
		C21.9,8.4,22,8.7,22,9v11c0,0.8-0.3,1.6-0.9,2.1S19.8,23,19,23z M4,9.5V20c0,0.3,0.1,0.5,0.3,0.7C4.5,20.9,4.7,21,5,21h14
		c0.3,0,0.5-0.1,0.7-0.3S20,20.3,20,20V9.5l-8-6.2L4,9.5z"/>
</g>
<g>
	<path class="st0" d="M15,23c-0.6,0-1-0.4-1-1v-9h-4v9c0,0.6-0.4,1-1,1s-1-0.4-1-1V12c0-0.6,0.4-1,1-1h6c0.6,0,1,0.4,1,1v10
		C16,22.6,15.6,23,15,23z"/>
</g>
</svg>
