<?xml version="1.0" encoding="utf-8"?>
<!-- Generator: Adobe Illustrator 27.5.0, SVG Export Plug-In . SVG Version: 6.00 Build 0)  -->
<svg version="1.1" id="Layer_1" xmlns="http://www.w3.org/2000/svg" xmlns:xlink="http://www.w3.org/1999/xlink" x="0px" y="0px"
	 viewBox="0 0 24 24" style="enable-background:new 0 0 24 24;" xml:space="preserve">
<style type="text/css">
	.st0{opacity:0.75;}
	.st1{fill:#EEEEEE;}
</style>
<g class="st0">
	<path class="st1" d="M17,23H7c-3.3,0-6-2.7-6-6V7c0-3.3,2.7-6,6-6h10c3.3,0,6,2.7,6,6v10C23,20.3,20.3,23,17,23z M7,3
		C4.8,3,3,4.8,3,7v10c0,2.2,1.8,4,4,4h10c2.2,0,4-1.8,4-4V7c0-2.2-1.8-4-4-4H7z"/>
</g>
<g class="st0">
	<path class="st1" d="M12.1,17c-0.3,0-0.5,0-0.8-0.1c-1-0.2-2-0.7-2.7-1.4c-0.7-0.8-1.2-1.7-1.4-2.7c-0.2-1,0-2.1,0.5-3
		C8.1,8.8,8.8,8,9.7,7.5c0.9-0.5,2-0.7,3-0.5c1.1,0.2,2,0.7,2.8,1.4c0.8,0.8,1.3,1.7,1.4,2.8c0,0,0,0,0,0c0.2,1,0,2.1-0.5,3
		c-0.5,0.9-1.2,1.7-2.2,2.2C13.6,16.8,12.8,17,12.1,17z M12,9c-0.5,0-0.9,0.1-1.4,0.3c-0.6,0.3-1,0.7-1.3,1.3
		c-0.3,0.6-0.4,1.2-0.3,1.8c0.1,0.6,0.4,1.2,0.8,1.6c0.4,0.4,1,0.7,1.6,0.8s1.3,0,1.8-0.3c0.6-0.3,1-0.7,1.3-1.3
		c0.3-0.6,0.4-1.2,0.3-1.8l0,0c-0.1-0.6-0.4-1.2-0.8-1.7c-0.5-0.5-1-0.8-1.7-0.8C12.3,9,12.2,9,12,9z"/>
</g>
<g class="st0">
	<path class="st1" d="M17.5,7.5c-0.6,0-1-0.4-1-1s0.4-1,1-1h0c0.6,0,1,0.4,1,1S18.1,7.5,17.5,7.5z"/>
</g>
</svg>
