<?xml version="1.0" encoding="utf-8"?>
<!-- Generator: Adobe Illustrator 27.5.0, SVG Export Plug-In . SVG Version: 6.00 Build 0)  -->
<svg version="1.1" id="Layer_1" xmlns="http://www.w3.org/2000/svg" xmlns:xlink="http://www.w3.org/1999/xlink" x="0px" y="0px"
	 viewBox="0 0 24 24" style="enable-background:new 0 0 24 24;" xml:space="preserve">
<style type="text/css">
	.st0{fill:#EEEEEE;}
</style>
<g>
	<path class="st0" d="M20,22.9c-0.1,0-0.2,0-0.3,0c-3.2-0.4-6.4-1.5-9.1-3.2c-2.5-1.6-4.7-3.8-6.3-6.3c-1.8-2.7-2.9-5.9-3.2-9.1
		c0-0.4,0-0.8,0.1-1.2C1.4,2.6,1.6,2.3,1.9,2s0.6-0.6,1-0.7C3.3,1.1,3.7,1,4.1,1h3c0.7,0,1.4,0.3,2,0.7c0.6,0.5,0.9,1.1,1,1.9
		c0.1,0.9,0.3,1.8,0.6,2.6c0.2,0.5,0.2,1.1,0.1,1.7c-0.1,0.6-0.4,1.1-0.8,1.5l-0.7,0.7c1.2,1.8,2.7,3.4,4.6,4.6l0.7-0.7
		c0.4-0.4,0.9-0.7,1.5-0.8c0.6-0.1,1.1-0.1,1.7,0.1c0.8,0.3,1.7,0.5,2.6,0.6c0.7,0.1,1.4,0.5,1.9,1c0.5,0.6,0.7,1.3,0.7,2v3
		c0,0.4-0.1,0.8-0.3,1.2c-0.2,0.4-0.4,0.7-0.7,1c-0.3,0.3-0.7,0.5-1.1,0.6C20.6,22.9,20.3,22.9,20,22.9z M7.1,3C7.1,3,7.1,3,7.1,3
		h-3C4,3,3.8,3,3.7,3.1C3.6,3.1,3.5,3.2,3.4,3.3C3.3,3.4,3.2,3.5,3.2,3.7c0,0.1-0.1,0.3,0,0.4C3.4,7,4.4,9.8,6,12.3
		c1.5,2.3,3.4,4.3,5.7,5.7c2.5,1.6,5.3,2.6,8.2,2.9c0.1,0,0.3,0,0.4-0.1c0.1,0,0.3-0.1,0.4-0.2c0.1-0.1,0.2-0.2,0.2-0.3
		c0.1-0.1,0.1-0.3,0.1-0.4v-3c0,0,0,0,0,0c0-0.2-0.1-0.5-0.2-0.7c-0.2-0.2-0.4-0.3-0.6-0.3c-1-0.1-2-0.4-3-0.8
		c-0.2-0.1-0.4-0.1-0.6,0c-0.2,0-0.4,0.1-0.5,0.3l-1.3,1.3c-0.3,0.3-0.8,0.4-1.2,0.2c-2.7-1.5-4.9-3.7-6.4-6.4C7,10,7.1,9.5,7.4,9.2
		l1.3-1.3c0.1-0.1,0.2-0.3,0.3-0.5c0-0.2,0-0.4,0-0.6c-0.4-1-0.6-2-0.8-3c0-0.2-0.2-0.5-0.3-0.6C7.6,3.1,7.4,3,7.1,3z"/>
</g>
</svg>
