<?xml version="1.0" encoding="utf-8"?>
<!-- Generator: Adobe Illustrator 27.5.0, SVG Export Plug-In . SVG Version: 6.00 Build 0)  -->
<svg version="1.1" id="Layer_1" xmlns="http://www.w3.org/2000/svg" xmlns:xlink="http://www.w3.org/1999/xlink" x="0px" y="0px"
	 viewBox="0 0 24 24" style="enable-background:new 0 0 24 24;" xml:space="preserve">
<style type="text/css">
	.st0{opacity:0.75;}
	.st1{fill:#EEEEEE;}
</style>
<g class="st0">
	<path class="st1" d="M12,20.5c-0.7,0-7.1,0-8.9-0.5c-0.6-0.2-1.2-0.5-1.7-1c-0.5-0.5-0.8-1-1-1.6C0.1,15.4,0,13.6,0,11.7
		c0-1.8,0.2-3.7,0.5-5.5C0.7,5.6,1,5,1.4,4.5c0.5-0.5,1-0.8,1.7-1C4.9,3,11.3,3,12,3c0.7,0,7.1,0,8.8,0.4c0.7,0.2,1.3,0.5,1.7,1
		c0.5,0.5,0.8,1.1,1,1.7c0,0,0,0,0,0.1c0.3,1.8,0.5,3.7,0.5,5.5c0,1.8-0.2,3.6-0.5,5.4c-0.2,0.7-0.5,1.3-1,1.8c-0.5,0.5-1,0.8-1.7,1
		C19.1,20.4,12.7,20.5,12,20.5z M12,5C9.3,5,4.8,5.1,3.7,5.4C3.4,5.5,3.1,5.7,2.9,5.9S2.5,6.4,2.4,6.7C2.1,8.3,2,10,2,11.7
		c0,1.7,0.1,3.5,0.4,5.2c0.1,0.2,0.2,0.5,0.4,0.7S3.4,18,3.7,18c1.2,0.3,5.6,0.4,8.3,0.4s7.2-0.1,8.3-0.4c0.3-0.1,0.6-0.2,0.8-0.5
		c0.2-0.2,0.4-0.5,0.4-0.8c0.3-1.6,0.4-3.3,0.4-5c0-1.7-0.1-3.4-0.4-5.1c-0.1-0.3-0.2-0.6-0.4-0.8c-0.2-0.2-0.5-0.4-0.8-0.5
		C19,5.1,13.9,5,12,5z"/>
</g>
<g class="st0">
	<path class="st1" d="M9.8,16c-0.2,0-0.3,0-0.5-0.1c-0.3-0.2-0.5-0.5-0.5-0.9V8.5c0-0.4,0.2-0.7,0.5-0.9c0.3-0.2,0.7-0.2,1,0
		l5.8,3.3c0.3,0.2,0.5,0.5,0.5,0.9s-0.2,0.7-0.5,0.9l-5.8,3.3C10.1,16,9.9,16,9.8,16z M10.8,10.2v3.1l2.7-1.6L10.8,10.2z"/>
</g>
</svg>
